<?xml version="1.0" encoding="UTF-8"?>
<svg id="Layer_2" data-name="Layer 2" xmlns="http://www.w3.org/2000/svg" viewBox="0 0 130.96 131.41">
  <defs>
    <style>
      .cls-1 {
        fill: #e1dfdc;
      }

      .cls-2 {
        fill: #124d71;
      }
    </style>
  </defs>
  <g id="Layer_1-2" data-name="Layer 1">
    <path class="cls-2" d="M65.48,0c36.16,0,65.48,29.32,65.48,65.48v.45c0,36.16-29.32,65.48-65.48,65.48S0,102.1,0,65.93v-.45C0,29.32,29.32,0,65.48,0"/>
    <path class="cls-1" d="M66.69,52.57c0-1.61-.64-2.42-1.92-2.42-1.35,0-2.02.71-2.02,2.12,0,.46.06.84.17,1.13s.19.51.22.64c-.36.3-1.3.76-2.81,1.38-6.05,2.47-9.95,5.16-11.69,8.09-2.79-.85-5.2-2.6-7.2-5.25-2.01-2.65-3.01-5.68-3.01-9.1,0-6.02,2.48-11,7.45-14.94,4.96-3.95,11.15-5.92,18.54-5.92,9.11,0,16.11,2.32,21.01,6.95,4.41,4.21,6.61,9.65,6.61,16.32,0,4.01-.87,7.59-2.61,10.73-1.74,3.14-3.85,5.77-6.34,7.89-2.48,2.12-4.99,3.79-7.52,5.01-.92-.89-1.92-1.59-3.01-2.1s-1.95-.76-2.59-.76-1.09.11-1.36.32c-.26.21-.39.63-.39,1.26,3.02.89,5.46,2.53,7.3,4.93,1.84,2.4,2.76,5.18,2.76,8.33,0,3.72-1.4,6.92-4.19,9.62-2.86,2.7-6.23,4.04-10.11,4.04s-7.22-1.35-10.01-4.04c-2.79-2.7-4.19-5.9-4.19-9.62,0-3.16.89-5.93,2.66-8.33-2.1-2.17-3.16-4.69-3.16-7.54,0-3.45.94-6.21,2.81-8.29,1.61-1.71,4.73-3.6,9.37-5.67,1.91-.79,3.25-1.55,4.04-2.29.79-.74,1.18-1.57,1.18-2.49Z"/>
  </g>
</svg>